<svg width="293" height="116" viewBox="0 0 293 116" fill="none" xmlns="http://www.w3.org/2000/svg">
<g filter="url(#filter0_d_9_2)">
<path d="M160.555 65.3177C157.289 63.3732 157.289 58.6454 160.555 56.7162L174.962 48.207C178.295 46.2385 182.512 48.6506 182.512 52.5254V69.6111C182.512 73.486 178.295 75.8783 174.962 73.8942L160.555 65.3177Z" fill="black"/>
<path d="M160.555 65.3177C157.289 63.3732 157.289 58.6454 160.555 56.7162L174.962 48.207C178.295 46.2385 182.512 48.6506 182.512 52.5254V69.6111C182.512 73.486 178.295 75.8783 174.962 73.8942L160.555 65.3177Z" fill="#22343C"/>
<path d="M161.32 64.0293C159.034 62.6681 159.034 59.3586 161.32 58.0082L175.727 49.499C178.06 48.1211 181.012 49.8095 181.012 52.5219V69.6076C181.012 72.32 178.06 73.9947 175.727 72.6058L161.32 64.0293Z" stroke="white" stroke-width="3"/>
</g>
<g filter="url(#filter1_d_9_2)">
<path d="M215.18 56.7733C218.447 58.7178 218.447 63.4457 215.18 65.3749L200.773 73.884C197.44 75.8526 193.223 73.4405 193.223 69.5656V52.48C193.223 48.6051 197.44 46.2127 200.773 48.1968L215.18 56.7733Z" fill="black"/>
<path d="M215.18 56.7733C218.447 58.7178 218.447 63.4457 215.18 65.3749L200.773 73.884C197.44 75.8526 193.223 73.4405 193.223 69.5656V52.48C193.223 48.6051 197.44 46.2127 200.773 48.1968L215.18 56.7733Z" fill="#22343C"/>
<path d="M214.415 58.0618C216.702 59.4229 216.702 62.7324 214.415 64.0829L200.008 72.592C197.675 73.97 194.723 72.2815 194.723 69.5691V52.4835C194.723 49.7711 197.675 48.0964 200.008 49.4853L214.415 58.0618Z" stroke="white" stroke-width="3"/>
</g>
<path d="M22.59 76.54C26.67 76.54 29.64 75.85 31.5 74.47C33.36 73.09 34.29 71.14 34.29 68.62C34.29 67.12 33.96 65.83 33.3 64.75C32.7 63.67 31.8 62.71 30.6 61.87C29.46 60.97 28.05 60.16 26.37 59.44C24.69 58.66 22.77 57.91 20.61 57.19C18.45 56.41 16.35 55.57 14.31 54.67C12.33 53.71 10.56 52.54 9 51.16C7.5 49.78 6.27 48.13 5.31 46.21C4.41 44.29 3.96 41.98 3.96 39.28C3.96 33.64 5.91 29.23 9.81 26.05C13.71 22.81 19.02 21.19 25.74 21.19C29.64 21.19 33.09 21.64 36.09 22.54C39.15 23.38 41.55 24.31 43.29 25.33L39.78 34.51C37.74 33.37 35.49 32.5 33.03 31.9C30.63 31.3 28.14 31 25.56 31C22.5 31 20.1 31.63 18.36 32.89C16.68 34.15 15.84 35.92 15.84 38.2C15.84 39.58 16.11 40.78 16.65 41.8C17.25 42.76 18.06 43.63 19.08 44.41C20.16 45.19 21.39 45.91 22.77 46.57C24.21 47.23 25.77 47.86 27.45 48.46C30.39 49.54 33 50.65 35.28 51.79C37.62 52.87 39.57 54.19 41.13 55.75C42.75 57.25 43.98 59.05 44.82 61.15C45.66 63.19 46.08 65.68 46.08 68.62C46.08 74.26 44.07 78.64 40.05 81.76C36.09 84.82 30.27 86.35 22.59 86.35C20.01 86.35 17.64 86.17 15.48 85.81C13.38 85.51 11.49 85.12 9.81 84.64C8.19 84.16 6.78 83.68 5.58 83.2C4.38 82.66 3.42 82.18 2.7 81.76L6.03 72.49C7.65 73.39 9.84 74.29 12.6 75.19C15.36 76.09 18.69 76.54 22.59 76.54ZM71.9135 85.9C68.6735 85.84 65.9735 85.48 63.8135 84.82C61.7135 84.16 60.0335 83.23 58.7735 82.03C57.5135 80.77 56.6135 79.24 56.0735 77.44C55.5935 75.58 55.3535 73.48 55.3535 71.14V16.96L66.2435 15.16V69.07C66.2435 70.39 66.3335 71.5 66.5135 72.4C66.7535 73.3 67.1435 74.08 67.6835 74.74C68.2235 75.34 68.9435 75.82 69.8435 76.18C70.8035 76.48 72.0035 76.72 73.4435 76.9L71.9135 85.9ZM93.2323 85H82.3423V37.93H93.2323V85ZM94.4023 24.16C94.4023 26.2 93.7423 27.82 92.4223 29.02C91.1023 30.22 89.5423 30.82 87.7423 30.82C85.8823 30.82 84.2923 30.22 82.9723 29.02C81.6523 27.82 80.9923 26.2 80.9923 24.16C80.9923 22.06 81.6523 20.41 82.9723 19.21C84.2923 18.01 85.8823 17.41 87.7423 17.41C89.5423 17.41 91.1023 18.01 92.4223 19.21C93.7423 20.41 94.4023 22.06 94.4023 24.16ZM115.675 61.33C115.675 66.13 116.815 69.91 119.095 72.67C121.375 75.37 124.525 76.72 128.545 76.72C130.285 76.72 131.755 76.66 132.955 76.54C134.215 76.36 135.235 76.18 136.015 76V49C135.055 48.34 133.765 47.74 132.145 47.2C130.585 46.6 128.905 46.3 127.105 46.3C123.145 46.3 120.235 47.65 118.375 50.35C116.575 53.05 115.675 56.71 115.675 61.33ZM146.905 83.56C144.745 84.22 142.015 84.82 138.715 85.36C135.475 85.9 132.055 86.17 128.455 86.17C124.735 86.17 121.405 85.6 118.465 84.46C115.525 83.32 113.005 81.7 110.905 79.6C108.865 77.44 107.275 74.86 106.135 71.86C105.055 68.8 104.515 65.38 104.515 61.6C104.515 57.88 104.965 54.52 105.865 51.52C106.825 48.46 108.205 45.85 110.005 43.69C111.805 41.53 113.995 39.88 116.575 38.74C119.155 37.54 122.125 36.94 125.485 36.94C127.765 36.94 129.775 37.21 131.515 37.75C133.255 38.29 134.755 38.89 136.015 39.55V16.96L146.905 15.16V83.56Z" fill="white"/>
<path d="M254.308 60.25C254.308 55.33 253.678 51.79 252.418 49.63C251.218 47.41 248.938 46.3 245.578 46.3C244.378 46.3 243.058 46.39 241.618 46.57C240.178 46.75 239.098 46.9 238.378 47.02V85H227.488V39.46C229.588 38.86 232.318 38.29 235.678 37.75C239.098 37.21 242.698 36.94 246.478 36.94C249.718 36.94 252.358 37.36 254.398 38.2C256.498 39.04 258.238 40.15 259.618 41.53C260.278 41.05 261.118 40.54 262.138 40C263.158 39.46 264.298 38.98 265.558 38.56C266.818 38.08 268.138 37.69 269.518 37.39C270.958 37.09 272.398 36.94 273.838 36.94C277.498 36.94 280.498 37.48 282.838 38.56C285.238 39.58 287.098 41.05 288.418 42.97C289.798 44.83 290.728 47.11 291.208 49.81C291.748 52.45 292.018 55.36 292.018 58.54V85H281.128V60.25C281.128 55.33 280.528 51.79 279.328 49.63C278.128 47.41 275.818 46.3 272.398 46.3C270.658 46.3 269.008 46.6 267.448 47.2C265.888 47.74 264.718 48.28 263.938 48.82C264.418 50.32 264.748 51.91 264.928 53.59C265.108 55.27 265.198 57.07 265.198 58.99V85H254.308V60.25Z" fill="white"/>
<defs>
<filter id="filter0_d_9_2" x="118.105" y="8.5061" width="104.407" height="107.101" filterUnits="userSpaceOnUse" color-interpolation-filters="sRGB">
<feFlood flood-opacity="0" result="BackgroundImageFix"/>
<feColorMatrix in="SourceAlpha" type="matrix" values="0 0 0 0 0 0 0 0 0 0 0 0 0 0 0 0 0 0 127 0" result="hardAlpha"/>
<feOffset dy="1"/>
<feGaussianBlur stdDeviation="20"/>
<feComposite in2="hardAlpha" operator="out"/>
<feColorMatrix type="matrix" values="0 0 0 0 0 0 0 0 0 0 0 0 0 0 0 0 0 0 0.5 0"/>
<feBlend mode="normal" in2="BackgroundImageFix" result="effect1_dropShadow_9_2"/>
<feBlend mode="normal" in="SourceGraphic" in2="effect1_dropShadow_9_2" result="shape"/>
</filter>
<filter id="filter1_d_9_2" x="153.223" y="8.48401" width="104.407" height="107.101" filterUnits="userSpaceOnUse" color-interpolation-filters="sRGB">
<feFlood flood-opacity="0" result="BackgroundImageFix"/>
<feColorMatrix in="SourceAlpha" type="matrix" values="0 0 0 0 0 0 0 0 0 0 0 0 0 0 0 0 0 0 127 0" result="hardAlpha"/>
<feOffset dy="1"/>
<feGaussianBlur stdDeviation="20"/>
<feComposite in2="hardAlpha" operator="out"/>
<feColorMatrix type="matrix" values="0 0 0 0 0 0 0 0 0 0 0 0 0 0 0 0 0 0 0.5 0"/>
<feBlend mode="normal" in2="BackgroundImageFix" result="effect1_dropShadow_9_2"/>
<feBlend mode="normal" in="SourceGraphic" in2="effect1_dropShadow_9_2" result="shape"/>
</filter>
</defs>
</svg>
